<?xml version="1.0" encoding="iso-8859-1"?>
<!-- Generator: Adobe Illustrator 18.0.0, SVG Export Plug-In . SVG Version: 6.00 Build 0)  -->
<!DOCTYPE svg PUBLIC "-//W3C//DTD SVG 1.1//EN" "http://www.w3.org/Graphics/SVG/1.1/DTD/svg11.dtd">
<svg version="1.1" id="Capa_1" xmlns="http://www.w3.org/2000/svg" xmlns:xlink="http://www.w3.org/1999/xlink" x="0px" y="0px"
	 viewBox="0 0 452.979 452.979" style="enable-background:new 0 0 452.979 452.979;" xml:space="preserve">
<g>
	<path d="M437.979,422.979H30V15c0-8.284-6.716-15-15-15S0,6.716,0,15v422.979c0,8.284,6.716,15,15,15h422.979
		c8.284,0,15-6.716,15-15S446.263,422.979,437.979,422.979z"/>
	<path d="M56.998,405.981h78.927c5.523,0,10-4.477,10-10v-82.833c0-5.523-4.477-10-10-10H56.998c-5.523,0-10,4.477-10,10v82.833
		C46.998,401.504,51.475,405.981,56.998,405.981z M66.998,323.148h58.927v62.833H66.998V323.148z"/>
	<path d="M179.147,405.981h78.927c5.522,0,10-4.477,10-10v-215.6c0-5.523-4.478-10-10-10h-78.927c-5.523,0-10,4.477-10,10v215.6
		C169.147,401.504,173.624,405.981,179.147,405.981z M189.147,190.382h58.927v195.6h-58.927V190.382z"/>
	<path d="M305.054,405.981h78.928c5.522,0,10-4.477,10-10V49.161c0-5.523-4.478-10-10-10h-78.928c-5.522,0-10,4.477-10,10v346.82
		C295.054,401.504,299.532,405.981,305.054,405.981z M315.054,59.161h58.928v326.82h-58.928V59.161z"/>
</g>
<g>
</g>
<g>
</g>
<g>
</g>
<g>
</g>
<g>
</g>
<g>
</g>
<g>
</g>
<g>
</g>
<g>
</g>
<g>
</g>
<g>
</g>
<g>
</g>
<g>
</g>
<g>
</g>
<g>
</g>
</svg>
